<svg width="310" height="102" viewBox="0 0 310 102" fill="none" xmlns="http://www.w3.org/2000/svg">
<mask id="path-1-outside-1_12_235" maskUnits="userSpaceOnUse" x="2" y="21" width="307" height="61" fill="black">
<rect fill="white" x="2" y="21" width="307" height="61"/>
<path d="M19.7656 80.7812C17.1615 80.7812 14.8568 80.5078 12.8516 79.9609C10.8724 79.388 9.21875 78.6198 7.89062 77.6562C5.18229 75.7031 3.82812 72.9948 3.82812 69.5312C3.82812 67.9167 4.32292 66.6146 5.3125 65.625C6.32812 64.6354 7.76042 64.1406 9.60938 64.1406C9.6875 65.8073 9.9349 67.4089 10.3516 68.9453C10.7943 70.4818 11.4453 71.8359 12.3047 73.0078C13.1641 74.1797 14.2578 75.1172 15.5859 75.8203C16.9141 76.5234 18.5156 76.875 20.3906 76.875C23.9844 76.875 26.7839 76.0156 28.7891 74.2969C30.8203 72.5521 31.8359 70.0521 31.8359 66.7969C31.8359 63.9323 30.9375 61.6016 29.1406 59.8047C28.1771 58.8672 26.901 57.9688 25.3125 57.1094C23.75 56.224 21.7969 55.2995 19.4531 54.3359C16.9792 53.3203 14.8177 52.2396 12.9688 51.0938C11.1198 49.9219 9.58333 48.6198 8.35938 47.1875C5.9375 44.4271 4.72656 40.8854 4.72656 36.5625C4.72656 34.2708 5.15625 32.2266 6.01562 30.4297C6.90104 28.6328 8.125 27.1094 9.6875 25.8594C12.8906 23.3333 17.0703 22.0703 22.2266 22.0703C24.6224 22.0703 26.7448 22.3177 28.5938 22.8125C30.4427 23.3073 32.0052 23.9714 33.2812 24.8047C35.8854 26.5234 37.1875 28.6068 37.1875 31.0547C37.1875 32.7734 36.6146 34.0755 35.4688 34.9609C34.349 35.8203 32.8255 36.25 30.8984 36.25C30.8984 34.4531 30.5859 32.7865 29.9609 31.25C29.362 29.7135 28.3984 28.4766 27.0703 27.5391C25.7682 26.5755 24.0495 26.0938 21.9141 26.0938C18.9193 26.0938 16.5365 26.9141 14.7656 28.5547C13.0208 30.1693 12.1484 32.3828 12.1484 35.1953C12.1484 38.3464 13.0599 40.8333 14.8828 42.6562C15.8724 43.6198 17.1484 44.5443 18.7109 45.4297C20.2995 46.3151 22.2526 47.2266 24.5703 48.1641C26.9141 49.1276 28.9974 50.1432 30.8203 51.2109C32.6693 52.2786 34.2318 53.4635 35.5078 54.7656C36.7839 56.0938 37.7604 57.5781 38.4375 59.2188C39.1146 60.8333 39.4531 62.6693 39.4531 64.7266C39.4531 69.7266 37.6693 73.6719 34.1016 76.5625C30.612 79.375 25.8333 80.7812 19.7656 80.7812ZM64.9609 40.3125C62.0182 40.3125 60.0651 41.0938 59.1016 42.6562C58.138 44.1927 57.6562 46.3151 57.6562 49.0234C55.4427 49.0234 53.75 48.6458 52.5781 47.8906C51.4323 47.1354 50.8594 45.8333 50.8594 43.9844C50.8594 42.6042 51.237 41.4323 51.9922 40.4688C52.7474 39.5052 53.7891 38.7109 55.1172 38.0859C56.4193 37.487 57.9427 37.0443 59.6875 36.7578C61.4323 36.4714 63.2943 36.3281 65.2734 36.3281C67.7214 36.3281 69.8568 36.5755 71.6797 37.0703C73.5026 37.5391 75.026 38.3203 76.25 39.4141C78.6979 41.6016 79.9219 45.1823 79.9219 50.1562V70.8984C79.9219 73.0339 80.2865 74.5312 81.0156 75.3906C81.7448 76.224 83.0339 76.6406 84.8828 76.6406H85.1172V80H74.2969L73.0469 73.125H72.3828C71.2109 74.6875 70.0781 76.0417 68.9844 77.1875C67.8906 78.3333 66.6406 79.2188 65.2344 79.8438C63.8281 80.4688 62.0573 80.7812 59.9219 80.7812C58.151 80.7812 56.4974 80.5208 54.9609 80C53.4505 79.4792 52.1484 78.6979 51.0547 77.6562C49.9349 76.5885 49.0625 75.2604 48.4375 73.6719C47.8125 72.0833 47.5 70.1953 47.5 68.0078C47.5 63.763 49.0104 60.612 52.0312 58.5547C55.0521 56.4974 59.6224 55.3776 65.7422 55.1953L72.3828 54.9609V50.1562C72.3828 48.125 72.2005 46.3802 71.8359 44.9219C71.4974 43.4375 70.7943 42.3047 69.7266 41.5234C68.6849 40.7161 67.0964 40.3125 64.9609 40.3125ZM55.2734 68.3984C55.2734 73.3724 57.4349 75.8594 61.7578 75.8594C65.0391 75.8594 67.6302 74.8568 69.5312 72.8516C71.4323 70.8203 72.3828 68.112 72.3828 64.7266V58.2422L67.2656 58.4766C62.8906 58.6589 59.7656 59.5703 57.8906 61.2109C56.9531 62.0182 56.276 63.0339 55.8594 64.2578C55.4688 65.4557 55.2734 66.8359 55.2734 68.3984ZM112.109 76.6406H112.344V80H90.8203V76.6406H91.4844C93.4896 76.6406 95.0781 76.276 96.25 75.5469C97.4479 74.8177 98.0469 73.2682 98.0469 70.8984V45.9375C98.0469 43.6979 97.4349 42.2266 96.2109 41.5234C94.987 40.8203 93.4115 40.4688 91.4844 40.4688H91.25V37.1094H104.18L105.234 43.5938H105.625C107.24 40.7292 109.036 38.8021 111.016 37.8125C112.995 36.8229 115.365 36.3281 118.125 36.3281C122.396 36.3281 125.69 37.5651 128.008 40.0391C130.378 42.6432 131.562 46.6276 131.562 51.9922V70.8984C131.562 73.2422 132.083 74.7917 133.125 75.5469C134.193 76.276 135.716 76.6406 137.695 76.6406H137.969V80H124.023V52.3828C124.023 48.8932 123.372 46.1979 122.07 44.2969C120.768 42.3958 118.49 41.4453 115.234 41.4453C113.411 41.4453 111.875 41.7969 110.625 42.5C109.401 43.2031 108.411 44.1536 107.656 45.3516C106.901 46.5495 106.354 47.9297 106.016 49.4922C105.703 51.0547 105.547 52.6953 105.547 54.4141V71.2891C105.547 73.5026 106.146 74.9479 107.344 75.625C108.542 76.3021 110.13 76.6406 112.109 76.6406ZM163.274 36.4C168.501 36.4 172.368 37.5467 174.874 39.84C177.381 42.1333 178.634 45.7867 178.634 50.8V80H173.514L172.154 73.92H171.834C170.608 75.4667 169.328 76.7733 167.994 77.84C166.714 78.8533 165.221 79.6 163.514 80.08C161.861 80.56 159.834 80.8 157.434 80.8C154.874 80.8 152.554 80.3467 150.474 79.44C148.448 78.5333 146.848 77.1467 145.674 75.28C144.501 73.36 143.914 70.96 143.914 68.08C143.914 63.8133 145.594 60.5333 148.954 58.24C152.314 55.8933 157.488 54.6133 164.474 54.4L171.754 54.16V51.6C171.754 48.0267 170.981 45.5467 169.434 44.16C167.888 42.7733 165.701 42.08 162.874 42.08C160.634 42.08 158.501 42.4267 156.474 43.12C154.448 43.76 152.554 44.5067 150.794 45.36L148.634 40.08C150.501 39.0667 152.714 38.2133 155.274 37.52C157.834 36.7733 160.501 36.4 163.274 36.4ZM165.354 59.28C160.021 59.4933 156.314 60.3467 154.234 61.84C152.208 63.3333 151.194 65.44 151.194 68.16C151.194 70.56 151.914 72.32 153.354 73.44C154.848 74.56 156.741 75.12 159.034 75.12C162.661 75.12 165.674 74.1333 168.074 72.16C170.474 70.1333 171.674 67.04 171.674 62.88V59.04L165.354 59.28ZM174.554 25.84V31.52H150.794V25.84H174.554ZM206.289 76.5625C207.253 76.5625 208.138 76.5104 208.945 76.4062C209.753 76.3021 210.573 76.1719 211.406 76.0156V79.5312C210.677 79.8698 209.596 80.1562 208.164 80.3906C206.758 80.651 205.469 80.7812 204.297 80.7812C200.208 80.7812 197.266 79.8698 195.469 78.0469C193.62 76.1719 192.695 72.9557 192.695 68.3984V41.6797H186.602V38.4766C187.565 38.4766 188.62 38.2812 189.766 37.8906C190.938 37.5 191.966 36.849 192.852 35.9375C193.763 34.9479 194.492 33.776 195.039 32.4219C195.612 31.0417 196.107 29.3229 196.523 27.2656H200.195V37.1094H210.664V41.6797H200.195V68.6328C200.195 71.3672 200.742 73.3724 201.836 74.6484C202.956 75.9245 204.44 76.5625 206.289 76.5625ZM234.727 40.3125C231.784 40.3125 229.831 41.0938 228.867 42.6562C227.904 44.1927 227.422 46.3151 227.422 49.0234C225.208 49.0234 223.516 48.6458 222.344 47.8906C221.198 47.1354 220.625 45.8333 220.625 43.9844C220.625 42.6042 221.003 41.4323 221.758 40.4688C222.513 39.5052 223.555 38.7109 224.883 38.0859C226.185 37.487 227.708 37.0443 229.453 36.7578C231.198 36.4714 233.06 36.3281 235.039 36.3281C237.487 36.3281 239.622 36.5755 241.445 37.0703C243.268 37.5391 244.792 38.3203 246.016 39.4141C248.464 41.6016 249.688 45.1823 249.688 50.1562V70.8984C249.688 73.0339 250.052 74.5312 250.781 75.3906C251.51 76.224 252.799 76.6406 254.648 76.6406H254.883V80H244.062L242.812 73.125H242.148C240.977 74.6875 239.844 76.0417 238.75 77.1875C237.656 78.3333 236.406 79.2188 235 79.8438C233.594 80.4688 231.823 80.7812 229.688 80.7812C227.917 80.7812 226.263 80.5208 224.727 80C223.216 79.4792 221.914 78.6979 220.82 77.6562C219.701 76.5885 218.828 75.2604 218.203 73.6719C217.578 72.0833 217.266 70.1953 217.266 68.0078C217.266 63.763 218.776 60.612 221.797 58.5547C224.818 56.4974 229.388 55.3776 235.508 55.1953L242.148 54.9609V50.1562C242.148 48.125 241.966 46.3802 241.602 44.9219C241.263 43.4375 240.56 42.3047 239.492 41.5234C238.451 40.7161 236.862 40.3125 234.727 40.3125ZM225.039 68.3984C225.039 73.3724 227.201 75.8594 231.523 75.8594C234.805 75.8594 237.396 74.8568 239.297 72.8516C241.198 70.8203 242.148 68.112 242.148 64.7266V58.2422L237.031 58.4766C232.656 58.6589 229.531 59.5703 227.656 61.2109C226.719 62.0182 226.042 63.0339 225.625 64.2578C225.234 65.4557 225.039 66.8359 225.039 68.3984ZM281.875 76.6406H282.109V80H260.586V76.6406H261.25C263.255 76.6406 264.844 76.276 266.016 75.5469C267.214 74.8177 267.812 73.2682 267.812 70.8984V45.9375C267.812 43.6979 267.201 42.2266 265.977 41.5234C264.753 40.8203 263.177 40.4688 261.25 40.4688H261.016V37.1094H273.945L275 43.5938H275.391C277.005 40.7292 278.802 38.8021 280.781 37.8125C282.76 36.8229 285.13 36.3281 287.891 36.3281C292.161 36.3281 295.456 37.5651 297.773 40.0391C300.143 42.6432 301.328 46.6276 301.328 51.9922V70.8984C301.328 73.2422 301.849 74.7917 302.891 75.5469C303.958 76.276 305.482 76.6406 307.461 76.6406H307.734V80H293.789V52.3828C293.789 48.8932 293.138 46.1979 291.836 44.2969C290.534 42.3958 288.255 41.4453 285 41.4453C283.177 41.4453 281.641 41.7969 280.391 42.5C279.167 43.2031 278.177 44.1536 277.422 45.3516C276.667 46.5495 276.12 47.9297 275.781 49.4922C275.469 51.0547 275.312 52.6953 275.312 54.4141V71.2891C275.312 73.5026 275.911 74.9479 277.109 75.625C278.307 76.3021 279.896 76.6406 281.875 76.6406Z"/>
</mask>
<g filter="url(#filter0_i_12_235)">
<path d="M19.7656 80.7812C17.1615 80.7812 14.8568 80.5078 12.8516 79.9609C10.8724 79.388 9.21875 78.6198 7.89062 77.6562C5.18229 75.7031 3.82812 72.9948 3.82812 69.5312C3.82812 67.9167 4.32292 66.6146 5.3125 65.625C6.32812 64.6354 7.76042 64.1406 9.60938 64.1406C9.6875 65.8073 9.9349 67.4089 10.3516 68.9453C10.7943 70.4818 11.4453 71.8359 12.3047 73.0078C13.1641 74.1797 14.2578 75.1172 15.5859 75.8203C16.9141 76.5234 18.5156 76.875 20.3906 76.875C23.9844 76.875 26.7839 76.0156 28.7891 74.2969C30.8203 72.5521 31.8359 70.0521 31.8359 66.7969C31.8359 63.9323 30.9375 61.6016 29.1406 59.8047C28.1771 58.8672 26.901 57.9688 25.3125 57.1094C23.75 56.224 21.7969 55.2995 19.4531 54.3359C16.9792 53.3203 14.8177 52.2396 12.9688 51.0938C11.1198 49.9219 9.58333 48.6198 8.35938 47.1875C5.9375 44.4271 4.72656 40.8854 4.72656 36.5625C4.72656 34.2708 5.15625 32.2266 6.01562 30.4297C6.90104 28.6328 8.125 27.1094 9.6875 25.8594C12.8906 23.3333 17.0703 22.0703 22.2266 22.0703C24.6224 22.0703 26.7448 22.3177 28.5938 22.8125C30.4427 23.3073 32.0052 23.9714 33.2812 24.8047C35.8854 26.5234 37.1875 28.6068 37.1875 31.0547C37.1875 32.7734 36.6146 34.0755 35.4688 34.9609C34.349 35.8203 32.8255 36.25 30.8984 36.25C30.8984 34.4531 30.5859 32.7865 29.9609 31.25C29.362 29.7135 28.3984 28.4766 27.0703 27.5391C25.7682 26.5755 24.0495 26.0938 21.9141 26.0938C18.9193 26.0938 16.5365 26.9141 14.7656 28.5547C13.0208 30.1693 12.1484 32.3828 12.1484 35.1953C12.1484 38.3464 13.0599 40.8333 14.8828 42.6562C15.8724 43.6198 17.1484 44.5443 18.7109 45.4297C20.2995 46.3151 22.2526 47.2266 24.5703 48.1641C26.9141 49.1276 28.9974 50.1432 30.8203 51.2109C32.6693 52.2786 34.2318 53.4635 35.5078 54.7656C36.7839 56.0938 37.7604 57.5781 38.4375 59.2188C39.1146 60.8333 39.4531 62.6693 39.4531 64.7266C39.4531 69.7266 37.6693 73.6719 34.1016 76.5625C30.612 79.375 25.8333 80.7812 19.7656 80.7812ZM64.9609 40.3125C62.0182 40.3125 60.0651 41.0938 59.1016 42.6562C58.138 44.1927 57.6562 46.3151 57.6562 49.0234C55.4427 49.0234 53.75 48.6458 52.5781 47.8906C51.4323 47.1354 50.8594 45.8333 50.8594 43.9844C50.8594 42.6042 51.237 41.4323 51.9922 40.4688C52.7474 39.5052 53.7891 38.7109 55.1172 38.0859C56.4193 37.487 57.9427 37.0443 59.6875 36.7578C61.4323 36.4714 63.2943 36.3281 65.2734 36.3281C67.7214 36.3281 69.8568 36.5755 71.6797 37.0703C73.5026 37.5391 75.026 38.3203 76.25 39.4141C78.6979 41.6016 79.9219 45.1823 79.9219 50.1562V70.8984C79.9219 73.0339 80.2865 74.5312 81.0156 75.3906C81.7448 76.224 83.0339 76.6406 84.8828 76.6406H85.1172V80H74.2969L73.0469 73.125H72.3828C71.2109 74.6875 70.0781 76.0417 68.9844 77.1875C67.8906 78.3333 66.6406 79.2188 65.2344 79.8438C63.8281 80.4688 62.0573 80.7812 59.9219 80.7812C58.151 80.7812 56.4974 80.5208 54.9609 80C53.4505 79.4792 52.1484 78.6979 51.0547 77.6562C49.9349 76.5885 49.0625 75.2604 48.4375 73.6719C47.8125 72.0833 47.5 70.1953 47.5 68.0078C47.5 63.763 49.0104 60.612 52.0312 58.5547C55.0521 56.4974 59.6224 55.3776 65.7422 55.1953L72.3828 54.9609V50.1562C72.3828 48.125 72.2005 46.3802 71.8359 44.9219C71.4974 43.4375 70.7943 42.3047 69.7266 41.5234C68.6849 40.7161 67.0964 40.3125 64.9609 40.3125ZM55.2734 68.3984C55.2734 73.3724 57.4349 75.8594 61.7578 75.8594C65.0391 75.8594 67.6302 74.8568 69.5312 72.8516C71.4323 70.8203 72.3828 68.112 72.3828 64.7266V58.2422L67.2656 58.4766C62.8906 58.6589 59.7656 59.5703 57.8906 61.2109C56.9531 62.0182 56.276 63.0339 55.8594 64.2578C55.4688 65.4557 55.2734 66.8359 55.2734 68.3984ZM112.109 76.6406H112.344V80H90.8203V76.6406H91.4844C93.4896 76.6406 95.0781 76.276 96.25 75.5469C97.4479 74.8177 98.0469 73.2682 98.0469 70.8984V45.9375C98.0469 43.6979 97.4349 42.2266 96.2109 41.5234C94.987 40.8203 93.4115 40.4688 91.4844 40.4688H91.25V37.1094H104.18L105.234 43.5938H105.625C107.24 40.7292 109.036 38.8021 111.016 37.8125C112.995 36.8229 115.365 36.3281 118.125 36.3281C122.396 36.3281 125.69 37.5651 128.008 40.0391C130.378 42.6432 131.562 46.6276 131.562 51.9922V70.8984C131.562 73.2422 132.083 74.7917 133.125 75.5469C134.193 76.276 135.716 76.6406 137.695 76.6406H137.969V80H124.023V52.3828C124.023 48.8932 123.372 46.1979 122.07 44.2969C120.768 42.3958 118.49 41.4453 115.234 41.4453C113.411 41.4453 111.875 41.7969 110.625 42.5C109.401 43.2031 108.411 44.1536 107.656 45.3516C106.901 46.5495 106.354 47.9297 106.016 49.4922C105.703 51.0547 105.547 52.6953 105.547 54.4141V71.2891C105.547 73.5026 106.146 74.9479 107.344 75.625C108.542 76.3021 110.13 76.6406 112.109 76.6406ZM163.274 36.4C168.501 36.4 172.368 37.5467 174.874 39.84C177.381 42.1333 178.634 45.7867 178.634 50.8V80H173.514L172.154 73.92H171.834C170.608 75.4667 169.328 76.7733 167.994 77.84C166.714 78.8533 165.221 79.6 163.514 80.08C161.861 80.56 159.834 80.8 157.434 80.8C154.874 80.8 152.554 80.3467 150.474 79.44C148.448 78.5333 146.848 77.1467 145.674 75.28C144.501 73.36 143.914 70.96 143.914 68.08C143.914 63.8133 145.594 60.5333 148.954 58.24C152.314 55.8933 157.488 54.6133 164.474 54.4L171.754 54.16V51.6C171.754 48.0267 170.981 45.5467 169.434 44.16C167.888 42.7733 165.701 42.08 162.874 42.08C160.634 42.08 158.501 42.4267 156.474 43.12C154.448 43.76 152.554 44.5067 150.794 45.36L148.634 40.08C150.501 39.0667 152.714 38.2133 155.274 37.52C157.834 36.7733 160.501 36.4 163.274 36.4ZM165.354 59.28C160.021 59.4933 156.314 60.3467 154.234 61.84C152.208 63.3333 151.194 65.44 151.194 68.16C151.194 70.56 151.914 72.32 153.354 73.44C154.848 74.56 156.741 75.12 159.034 75.12C162.661 75.12 165.674 74.1333 168.074 72.16C170.474 70.1333 171.674 67.04 171.674 62.88V59.04L165.354 59.28ZM174.554 25.84V31.52H150.794V25.84H174.554ZM206.289 76.5625C207.253 76.5625 208.138 76.5104 208.945 76.4062C209.753 76.3021 210.573 76.1719 211.406 76.0156V79.5312C210.677 79.8698 209.596 80.1562 208.164 80.3906C206.758 80.651 205.469 80.7812 204.297 80.7812C200.208 80.7812 197.266 79.8698 195.469 78.0469C193.62 76.1719 192.695 72.9557 192.695 68.3984V41.6797H186.602V38.4766C187.565 38.4766 188.62 38.2812 189.766 37.8906C190.938 37.5 191.966 36.849 192.852 35.9375C193.763 34.9479 194.492 33.776 195.039 32.4219C195.612 31.0417 196.107 29.3229 196.523 27.2656H200.195V37.1094H210.664V41.6797H200.195V68.6328C200.195 71.3672 200.742 73.3724 201.836 74.6484C202.956 75.9245 204.44 76.5625 206.289 76.5625ZM234.727 40.3125C231.784 40.3125 229.831 41.0938 228.867 42.6562C227.904 44.1927 227.422 46.3151 227.422 49.0234C225.208 49.0234 223.516 48.6458 222.344 47.8906C221.198 47.1354 220.625 45.8333 220.625 43.9844C220.625 42.6042 221.003 41.4323 221.758 40.4688C222.513 39.5052 223.555 38.7109 224.883 38.0859C226.185 37.487 227.708 37.0443 229.453 36.7578C231.198 36.4714 233.06 36.3281 235.039 36.3281C237.487 36.3281 239.622 36.5755 241.445 37.0703C243.268 37.5391 244.792 38.3203 246.016 39.4141C248.464 41.6016 249.688 45.1823 249.688 50.1562V70.8984C249.688 73.0339 250.052 74.5312 250.781 75.3906C251.51 76.224 252.799 76.6406 254.648 76.6406H254.883V80H244.062L242.812 73.125H242.148C240.977 74.6875 239.844 76.0417 238.75 77.1875C237.656 78.3333 236.406 79.2188 235 79.8438C233.594 80.4688 231.823 80.7812 229.688 80.7812C227.917 80.7812 226.263 80.5208 224.727 80C223.216 79.4792 221.914 78.6979 220.82 77.6562C219.701 76.5885 218.828 75.2604 218.203 73.6719C217.578 72.0833 217.266 70.1953 217.266 68.0078C217.266 63.763 218.776 60.612 221.797 58.5547C224.818 56.4974 229.388 55.3776 235.508 55.1953L242.148 54.9609V50.1562C242.148 48.125 241.966 46.3802 241.602 44.9219C241.263 43.4375 240.56 42.3047 239.492 41.5234C238.451 40.7161 236.862 40.3125 234.727 40.3125ZM225.039 68.3984C225.039 73.3724 227.201 75.8594 231.523 75.8594C234.805 75.8594 237.396 74.8568 239.297 72.8516C241.198 70.8203 242.148 68.112 242.148 64.7266V58.2422L237.031 58.4766C232.656 58.6589 229.531 59.5703 227.656 61.2109C226.719 62.0182 226.042 63.0339 225.625 64.2578C225.234 65.4557 225.039 66.8359 225.039 68.3984ZM281.875 76.6406H282.109V80H260.586V76.6406H261.25C263.255 76.6406 264.844 76.276 266.016 75.5469C267.214 74.8177 267.812 73.2682 267.812 70.8984V45.9375C267.812 43.6979 267.201 42.2266 265.977 41.5234C264.753 40.8203 263.177 40.4688 261.25 40.4688H261.016V37.1094H273.945L275 43.5938H275.391C277.005 40.7292 278.802 38.8021 280.781 37.8125C282.76 36.8229 285.13 36.3281 287.891 36.3281C292.161 36.3281 295.456 37.5651 297.773 40.0391C300.143 42.6432 301.328 46.6276 301.328 51.9922V70.8984C301.328 73.2422 301.849 74.7917 302.891 75.5469C303.958 76.276 305.482 76.6406 307.461 76.6406H307.734V80H293.789V52.3828C293.789 48.8932 293.138 46.1979 291.836 44.2969C290.534 42.3958 288.255 41.4453 285 41.4453C283.177 41.4453 281.641 41.7969 280.391 42.5C279.167 43.2031 278.177 44.1536 277.422 45.3516C276.667 46.5495 276.12 47.9297 275.781 49.4922C275.469 51.0547 275.312 52.6953 275.312 54.4141V71.2891C275.312 73.5026 275.911 74.9479 277.109 75.625C278.307 76.3021 279.896 76.6406 281.875 76.6406Z" fill="#F6970A"/>
</g>
<path d="M12.8516 79.9609L12.5735 80.9215L12.581 80.9237L12.5884 80.9257L12.8516 79.9609ZM7.89062 77.6562L8.47785 76.8468L8.47555 76.8452L7.89062 77.6562ZM5.3125 65.625L4.61458 64.9087L4.60539 64.9179L5.3125 65.625ZM9.60938 64.1406L10.6083 64.0938L10.5636 63.1406H9.60938V64.1406ZM10.3516 68.9453L9.38642 69.207L9.38848 69.2146L9.39066 69.2222L10.3516 68.9453ZM28.7891 74.2969L29.4399 75.0561L29.4407 75.0554L28.7891 74.2969ZM29.1406 59.8047L29.8478 59.0975L29.838 59.088L29.1406 59.8047ZM25.3125 57.1094L24.8195 57.9794L24.828 57.9842L24.8367 57.9889L25.3125 57.1094ZM19.4531 54.3359L19.8334 53.411L19.8329 53.4109L19.4531 54.3359ZM12.9688 51.0938L12.4334 51.9384L12.442 51.9438L12.9688 51.0938ZM8.35938 47.1875L9.11967 46.5378L9.11107 46.528L8.35938 47.1875ZM6.01562 30.4297L5.11855 29.9877L5.11349 29.9982L6.01562 30.4297ZM9.6875 25.8594L9.06825 25.0741L9.06281 25.0785L9.6875 25.8594ZM33.2812 24.8047L33.8321 23.9701L33.828 23.9674L33.2812 24.8047ZM35.4688 34.9609L36.0776 35.7542L36.0802 35.7522L35.4688 34.9609ZM30.8984 36.25H29.8984V37.25H30.8984V36.25ZM29.9609 31.25L29.0292 31.6132L29.0319 31.62L29.0346 31.6268L29.9609 31.25ZM27.0703 27.5391L26.4755 28.3429L26.4845 28.3496L26.4936 28.356L27.0703 27.5391ZM14.7656 28.5547L15.4448 29.2887L15.4452 29.2882L14.7656 28.5547ZM14.8828 42.6562L14.1756 43.3634L14.1852 43.3727L14.8828 42.6562ZM18.7109 45.4297L18.2179 46.2997L18.2241 46.3032L18.7109 45.4297ZM24.5703 48.1641L24.9506 47.2392L24.9453 47.237L24.5703 48.1641ZM30.8203 51.2109L30.3149 52.0738L30.3202 52.0769L30.8203 51.2109ZM35.5078 54.7656L36.229 54.0728L36.222 54.0657L35.5078 54.7656ZM38.4375 59.2188L37.5131 59.6002L37.5153 59.6055L38.4375 59.2188ZM34.1016 76.5625L34.7291 77.3411L34.7311 77.3395L34.1016 76.5625ZM19.7656 79.7812C17.229 79.7812 15.0157 79.5146 13.1147 78.9962L12.5884 80.9257C14.6978 81.501 17.0939 81.7812 19.7656 81.7812V79.7812ZM13.1296 79.0004C11.2343 78.4517 9.69197 77.7277 8.47785 76.8468L7.3034 78.4657C8.74553 79.5119 10.5105 80.3243 12.5735 80.9215L13.1296 79.0004ZM8.47555 76.8452C6.03912 75.0881 4.82812 72.6876 4.82812 69.5312H2.82812C2.82812 73.302 4.32546 76.3181 7.3057 78.4673L8.47555 76.8452ZM4.82812 69.5312C4.82812 68.1377 5.24664 67.1051 6.01961 66.3321L4.60539 64.9179C3.3992 66.1241 2.82812 67.6956 2.82812 69.5312H4.82812ZM6.01036 66.3412C6.78768 65.5838 7.93896 65.1406 9.60938 65.1406V63.1406C7.58187 63.1406 5.86857 63.687 4.61464 64.9088L6.01036 66.3412ZM8.61047 64.1874C8.69184 65.9233 8.94983 67.5971 9.38642 69.207L11.3167 68.6836C10.92 67.2206 10.6832 65.6913 10.6083 64.0938L8.61047 64.1874ZM9.39066 69.2222C9.86269 70.8604 10.5627 72.3233 11.4983 73.5992L13.1111 72.4165C12.328 71.3486 11.7259 70.1031 11.3125 68.6684L9.39066 69.2222ZM11.4983 73.5992C12.4501 74.897 13.6611 75.9328 15.118 76.7041L16.0538 74.9365C14.8545 74.3016 13.8781 73.4623 13.1111 72.4165L11.4983 73.5992ZM15.118 76.7041C16.6217 77.5002 18.3922 77.875 20.3906 77.875V75.875C18.6391 75.875 17.2064 75.5467 16.0538 74.9365L15.118 76.7041ZM20.3906 77.875C24.1367 77.875 27.1971 76.9785 29.4399 75.0561L28.1383 73.5376C26.3706 75.0528 23.832 75.875 20.3906 75.875V77.875ZM29.4407 75.0554C31.7404 73.0801 32.8359 70.2749 32.8359 66.7969H30.8359C30.8359 69.8292 29.9003 72.0241 28.1375 73.5383L29.4407 75.0554ZM32.8359 66.7969C32.8359 63.7039 31.8567 61.1065 29.8477 59.0976L28.4335 60.5118C30.0183 62.0966 30.8359 64.1607 30.8359 66.7969H32.8359ZM29.838 59.088C28.7903 58.0686 27.432 57.119 25.7883 56.2298L24.8367 57.9889C26.3701 58.8185 27.5639 59.6658 28.4433 60.5214L29.838 59.088ZM25.8055 56.2394C24.1952 55.3269 22.2015 54.3846 19.8334 53.411L19.0729 55.2608C21.3923 56.2144 23.3048 57.1211 24.8195 57.9794L25.8055 56.2394ZM19.8329 53.4109C17.3988 52.4116 15.2884 51.3548 13.4955 50.2437L12.442 51.9438C14.347 53.1243 16.5595 54.229 19.0734 55.261L19.8329 53.4109ZM13.5041 50.2491C11.7261 49.1222 10.2692 47.8832 9.11961 46.5378L7.59914 47.8372C8.89742 49.3564 10.5135 50.7215 12.4334 51.9384L13.5041 50.2491ZM9.11107 46.528C6.87685 43.9815 5.72656 40.6881 5.72656 36.5625H3.72656C3.72656 41.0827 4.99815 44.8727 7.60768 47.847L9.11107 46.528ZM5.72656 36.5625C5.72656 34.3977 6.13185 32.5044 6.91776 30.8611L5.11349 29.9982C4.18065 31.9487 3.72656 34.144 3.72656 36.5625H5.72656ZM6.91264 30.8717C7.7333 29.2062 8.86435 27.7985 10.3122 26.6402L9.06281 25.0785C7.38565 26.4202 6.06878 28.0594 5.11861 29.9877L6.91264 30.8717ZM10.3067 26.6446C13.2913 24.2909 17.2346 23.0703 22.2266 23.0703V21.0703C16.906 21.0703 12.49 22.3757 9.06827 25.0742L10.3067 26.6446ZM22.2266 23.0703C24.556 23.0703 26.5886 23.3111 28.3352 23.7785L28.8523 21.8465C26.901 21.3243 24.6888 21.0703 22.2266 21.0703V23.0703ZM28.3352 23.7785C30.1069 24.2526 31.5664 24.8792 32.7345 25.642L33.828 23.9674C32.444 23.0636 30.7785 22.362 28.8523 21.8465L28.3352 23.7785ZM32.7304 25.6393C35.141 27.2303 36.1875 29.035 36.1875 31.0547H38.1875C38.1875 28.1785 36.6298 25.8166 33.8321 23.9701L32.7304 25.6393ZM36.1875 31.0547C36.1875 32.5287 35.7109 33.5101 34.8573 34.1697L36.0802 35.7522C37.5183 34.641 38.1875 33.0182 38.1875 31.0547H36.1875ZM34.8599 34.1676C33.9688 34.8516 32.6848 35.25 30.8984 35.25V37.25C32.9663 37.25 34.7292 36.7891 36.0776 35.7542L34.8599 34.1676ZM31.8984 36.25C31.8984 34.3348 31.5648 32.539 30.8872 30.8732L29.0346 31.6268C29.607 33.034 29.8984 34.5715 29.8984 36.25H31.8984ZM30.8926 30.8868C30.2235 29.1703 29.1379 27.7745 27.647 26.7221L26.4936 28.356C27.659 29.1787 28.5004 30.2568 29.0292 31.6132L30.8926 30.8868ZM27.6652 26.7352C26.1434 25.6091 24.1958 25.0938 21.9141 25.0938V27.0938C23.9032 27.0938 25.3931 27.5419 26.4755 28.3429L27.6652 26.7352ZM21.9141 25.0938C18.7307 25.0938 16.0835 25.9705 14.086 27.8211L15.4452 29.2882C16.9894 27.8576 19.1078 27.0938 21.9141 27.0938V25.0938ZM14.0864 27.8207C12.0996 29.6593 11.1484 32.1597 11.1484 35.1953H13.1484C13.1484 32.6059 13.942 30.6793 15.4448 29.2887L14.0864 27.8207ZM11.1484 35.1953C11.1484 38.5488 12.1251 41.3128 14.1757 43.3634L15.5899 41.9491C13.9947 40.3539 13.1484 38.1439 13.1484 35.1953H11.1484ZM14.1852 43.3727C15.2513 44.4108 16.6019 45.384 18.2179 46.2997L19.204 44.5597C17.695 43.7046 16.4935 42.8288 15.5804 41.9398L14.1852 43.3727ZM18.2241 46.3032C19.8593 47.2146 21.8524 48.1434 24.1953 49.0911L24.9453 47.237C22.6528 46.3097 20.7397 45.4156 19.1978 44.5562L18.2241 46.3032ZM24.1901 49.089C26.4989 50.0381 28.5392 51.0338 30.3149 52.0738L31.3257 50.3481C29.4556 49.2527 27.3292 48.2171 24.9505 47.2392L24.1901 49.089ZM30.3202 52.0769C32.1037 53.1068 33.5908 54.2382 34.7936 55.4656L36.222 54.0657C34.8727 52.6889 33.2349 51.4505 31.3204 50.345L30.3202 52.0769ZM34.7867 55.4585C35.9795 56.6999 36.8855 58.0795 37.5131 59.6002L39.3619 58.8373C38.6353 57.0767 37.5883 55.4876 36.2289 54.0728L34.7867 55.4585ZM37.5153 59.6055C38.1329 61.0781 38.4531 62.7792 38.4531 64.7266H40.4531C40.4531 62.5594 40.0963 60.5886 39.3597 58.832L37.5153 59.6055ZM38.4531 64.7266C38.4531 69.4556 36.7826 73.1032 33.472 75.7855L34.7311 77.3395C38.5559 74.2405 40.4531 69.9976 40.4531 64.7266H38.4531ZM33.474 75.7839C30.2161 78.4097 25.6855 79.7812 19.7656 79.7812V81.7812C25.9811 81.7812 31.0078 80.3403 34.7291 77.3411L33.474 75.7839ZM59.1016 42.6562L59.9488 43.1876L59.9527 43.1811L59.1016 42.6562ZM57.6562 49.0234V50.0234H58.6562V49.0234H57.6562ZM52.5781 47.8906L52.0278 48.7256L52.0364 48.7312L52.5781 47.8906ZM51.9922 40.4688L52.7792 41.0856L51.9922 40.4688ZM55.1172 38.0859L54.6993 37.1774L54.6914 37.1811L55.1172 38.0859ZM71.6797 37.0703L71.4177 38.0355L71.4306 38.0388L71.6797 37.0703ZM76.25 39.4141L76.9163 38.6684L76.25 39.4141ZM81.0156 75.3906L80.2531 76.0376L80.258 76.0434L80.263 76.0491L81.0156 75.3906ZM85.1172 76.6406H86.1172V75.6406H85.1172V76.6406ZM85.1172 80V81H86.1172V80H85.1172ZM74.2969 80L73.313 80.1789L73.4623 81H74.2969V80ZM73.0469 73.125L74.0307 72.9461L73.8815 72.125H73.0469V73.125ZM72.3828 73.125V72.125H71.8828L71.5828 72.525L72.3828 73.125ZM54.9609 80L54.6349 80.9454L54.6399 80.9471L54.9609 80ZM51.0547 77.6562L50.3646 78.38L50.365 78.3804L51.0547 77.6562ZM52.0312 58.5547L51.4684 57.7282L52.0312 58.5547ZM65.7422 55.1953L65.772 56.1949L65.7775 56.1947L65.7422 55.1953ZM72.3828 54.9609L72.4181 55.9603L73.3828 55.9263V54.9609H72.3828ZM71.8359 44.9219L70.861 45.1442L70.8633 45.1543L70.8658 45.1644L71.8359 44.9219ZM69.7266 41.5234L69.114 42.3139L69.1249 42.3223L69.1361 42.3305L69.7266 41.5234ZM69.5312 72.8516L70.257 73.5396L70.2614 73.5349L69.5312 72.8516ZM72.3828 58.2422H73.3828V57.1953L72.3371 57.2432L72.3828 58.2422ZM67.2656 58.4766L67.3073 59.4757L67.3114 59.4755L67.2656 58.4766ZM57.8906 61.2109L58.5432 61.9687L58.5491 61.9635L57.8906 61.2109ZM55.8594 64.2578L54.9126 63.9355L54.9086 63.9478L55.8594 64.2578ZM64.9609 39.3125C61.8897 39.3125 59.487 40.1261 58.2504 42.1314L59.9527 43.1811C60.6432 42.0614 62.1467 41.3125 64.9609 41.3125V39.3125ZM58.2544 42.125C57.1532 43.8808 56.6562 46.2138 56.6562 49.0234H58.6562C58.6562 46.4164 59.1228 44.5046 59.9488 43.1875L58.2544 42.125ZM57.6562 48.0234C55.5316 48.0234 54.0611 47.6567 53.1198 47.0501L52.0364 48.7312C53.4389 49.635 55.3538 50.0234 57.6562 50.0234V48.0234ZM53.1284 47.0557C52.3564 46.5468 51.8594 45.6263 51.8594 43.9844H49.8594C49.8594 46.0404 50.5082 47.724 52.0278 48.7256L53.1284 47.0557ZM51.8594 43.9844C51.8594 42.7978 52.1795 41.8509 52.7792 41.0856L51.2051 39.8519C50.2945 41.0137 49.8594 42.4105 49.8594 43.9844H51.8594ZM52.7792 41.0856C53.4208 40.2671 54.3283 39.5624 55.543 38.9908L54.6914 37.1811C53.2499 37.8595 52.074 38.7434 51.2051 39.8519L52.7792 41.0856ZM55.5351 38.9944C56.7394 38.4404 58.1734 38.0198 59.8495 37.7446L59.5255 35.771C57.712 36.0688 56.0991 36.5335 54.6993 37.1774L55.5351 38.9944ZM59.8495 37.7446C61.5349 37.4679 63.3422 37.3281 65.2734 37.3281V35.3281C63.2463 35.3281 61.3297 35.4748 59.5255 35.771L59.8495 37.7446ZM65.2734 37.3281C67.6575 37.3281 69.7011 37.5694 71.4177 38.0354L71.9416 36.1052C70.0125 35.5816 67.7852 35.3281 65.2734 35.3281V37.3281ZM71.4306 38.0388C73.1215 38.4736 74.4954 39.1872 75.5837 40.1597L76.9163 38.6684C75.5567 37.4534 73.8837 36.6045 71.9287 36.1018L71.4306 38.0388ZM75.5837 40.1597C77.73 42.0777 78.9219 45.3201 78.9219 50.1562H80.9219C80.9219 45.0445 79.6658 41.1254 76.9163 38.6684L75.5837 40.1597ZM78.9219 50.1562V70.8984H80.9219V50.1562H78.9219ZM78.9219 70.8984C78.9219 73.0861 79.283 74.8942 80.2531 76.0376L81.7781 74.7436C81.2899 74.1683 80.9219 72.9817 80.9219 70.8984H78.9219ZM80.263 76.0491C81.2775 77.2085 82.9318 77.6406 84.8828 77.6406V75.6406C83.1359 75.6406 82.2121 75.2394 81.7682 74.7321L80.263 76.0491ZM84.8828 77.6406H85.1172V75.6406H84.8828V77.6406ZM84.1172 76.6406V80H86.1172V76.6406H84.1172ZM85.1172 79H74.2969V81H85.1172V79ZM75.2807 79.8211L74.0307 72.9461L72.063 73.3039L73.313 80.1789L75.2807 79.8211ZM73.0469 72.125H72.3828V74.125H73.0469V72.125ZM71.5828 72.525C70.4295 74.0628 69.322 75.3855 68.261 76.497L69.7077 77.878C70.8342 76.6979 71.9924 75.3122 73.1828 73.725L71.5828 72.525ZM68.261 76.497C67.2547 77.5513 66.1117 78.3595 64.8282 78.9299L65.6405 80.7576C67.1696 80.078 68.5265 79.1154 69.7077 77.878L68.261 76.497ZM64.8282 78.9299C63.5893 79.4806 61.9681 79.7812 59.9219 79.7812V81.7812C62.1465 81.7812 64.067 81.4569 65.6405 80.7576L64.8282 78.9299ZM59.9219 79.7812C58.2503 79.7812 56.706 79.5357 55.282 79.0529L54.6399 80.9471C56.2888 81.506 58.0518 81.7812 59.9219 81.7812V79.7812ZM55.2869 79.0546C53.9042 78.5778 52.7282 77.8691 51.7443 76.9321L50.365 78.3804C51.5687 79.5267 52.9968 80.3805 54.6349 80.9454L55.2869 79.0546ZM51.7448 76.9325C50.7406 75.9751 49.9454 74.7731 49.3681 73.3057L47.5069 74.038C48.1796 75.7477 49.1292 77.202 50.3646 78.38L51.7448 76.9325ZM49.3681 73.3057C48.7999 71.8615 48.5 70.1037 48.5 68.0078H46.5C46.5 70.2869 46.8251 72.3051 47.5069 74.038L49.3681 73.3057ZM48.5 68.0078C48.5 64.0321 49.8941 61.22 52.5941 59.3812L51.4684 57.7282C48.1267 60.0039 46.5 63.4939 46.5 68.0078H48.5ZM52.5941 59.3812C55.3837 57.4815 59.7279 56.3749 65.772 56.1949L65.7124 54.1958C59.5169 54.3803 54.7205 55.5133 51.4684 57.7282L52.5941 59.3812ZM65.7775 56.1947L72.4181 55.9603L72.3475 53.9616L65.7069 54.1959L65.7775 56.1947ZM73.3828 54.9609V50.1562H71.3828V54.9609H73.3828ZM73.3828 50.1562C73.3828 48.0698 73.196 46.2392 72.8061 44.6793L70.8658 45.1644C71.205 46.5212 71.3828 48.1802 71.3828 50.1562H73.3828ZM72.8109 44.6995C72.4274 43.0179 71.6082 41.6611 70.3171 40.7164L69.1361 42.3305C69.9804 42.9483 70.5674 43.8571 70.861 45.1442L72.8109 44.6995ZM70.3391 40.733C69.0429 39.7284 67.1909 39.3125 64.9609 39.3125V41.3125C67.0018 41.3125 68.3269 41.7039 69.114 42.3139L70.3391 40.733ZM54.2734 68.3984C54.2734 71.0078 54.8374 73.1516 56.1398 74.6501C57.4654 76.1755 59.4028 76.8594 61.7578 76.8594V74.8594C59.7899 74.8594 58.4851 74.2998 57.6493 73.3382C56.7902 72.3497 56.2734 70.763 56.2734 68.3984H54.2734ZM61.7578 76.8594C65.2578 76.8594 68.1319 75.7811 70.257 73.5396L68.8055 72.1636C67.1285 73.9325 64.8203 74.8594 61.7578 74.8594V76.8594ZM70.2614 73.5349C72.3718 71.2799 73.3828 68.3077 73.3828 64.7266H71.3828C71.3828 67.9163 70.4928 70.3607 68.8011 72.1682L70.2614 73.5349ZM73.3828 64.7266V58.2422H71.3828V64.7266H73.3828ZM72.3371 57.2432L67.2199 57.4776L67.3114 59.4755L72.4286 59.2411L72.3371 57.2432ZM67.224 57.4774C62.7759 57.6628 59.367 58.5903 57.2321 60.4584L58.5491 61.9635C60.1642 60.5503 63.0053 59.6549 67.3073 59.4757L67.224 57.4774ZM57.2381 60.4532C56.1593 61.3822 55.3842 62.5507 54.9127 63.9355L56.806 64.5801C57.1679 63.517 57.747 62.6543 58.5431 61.9687L57.2381 60.4532ZM54.9086 63.9478C54.4786 65.2665 54.2734 66.7549 54.2734 68.3984H56.2734C56.2734 66.917 56.4589 65.645 56.8101 64.5678L54.9086 63.9478ZM112.344 76.6406H113.344V75.6406H112.344V76.6406ZM112.344 80V81H113.344V80H112.344ZM90.8203 80H89.8203V81H90.8203V80ZM90.8203 76.6406V75.6406H89.8203V76.6406H90.8203ZM96.25 75.5469L95.73 74.6926L95.7217 74.6978L96.25 75.5469ZM91.25 40.4688H90.25V41.4688H91.25V40.4688ZM91.25 37.1094V36.1094H90.25V37.1094H91.25ZM104.18 37.1094L105.167 36.9488L105.03 36.1094H104.18V37.1094ZM105.234 43.5938L104.247 43.7543L104.384 44.5938H105.234V43.5938ZM105.625 43.5938V44.5938H106.209L106.496 44.0848L105.625 43.5938ZM128.008 40.0391L128.747 39.366L128.743 39.3607L128.738 39.3554L128.008 40.0391ZM133.125 75.5469L132.538 76.3565L132.549 76.3647L132.561 76.3727L133.125 75.5469ZM137.969 76.6406H138.969V75.6406H137.969V76.6406ZM137.969 80V81H138.969V80H137.969ZM124.023 80H123.023V81H124.023V80ZM110.625 42.5L110.135 41.6284L110.127 41.6329L110.625 42.5ZM106.016 49.4922L105.038 49.2804L105.037 49.2882L105.035 49.2961L106.016 49.4922ZM107.344 75.625L106.852 76.4956L107.344 75.625ZM112.109 77.6406H112.344V75.6406H112.109V77.6406ZM111.344 76.6406V80H113.344V76.6406H111.344ZM112.344 79H90.8203V81H112.344V79ZM91.8203 80V76.6406H89.8203V80H91.8203ZM90.8203 77.6406H91.4844V75.6406H90.8203V77.6406ZM91.4844 77.6406C93.5965 77.6406 95.3916 77.2588 96.7783 76.3959L95.7217 74.6978C94.7647 75.2933 93.3826 75.6406 91.4844 75.6406V77.6406ZM96.7699 76.4011C98.4286 75.3915 99.0469 73.3712 99.0469 70.8984H97.0469C97.0469 73.1653 96.4673 74.2439 95.7301 74.6927L96.7699 76.4011ZM99.0469 70.8984V45.9375H97.0469V70.8984H99.0469ZM99.0469 45.9375C99.0469 43.563 98.3977 41.6264 96.7091 40.6563L95.7128 42.3905C96.4721 42.8267 97.0469 43.8328 97.0469 45.9375H99.0469ZM96.7091 40.6563C95.2881 39.84 93.5251 39.4688 91.4844 39.4688V41.4688C93.2978 41.4688 94.6859 41.8006 95.7128 42.3905L96.7091 40.6563ZM91.4844 39.4688H91.25V41.4688H91.4844V39.4688ZM92.25 40.4688V37.1094H90.25V40.4688H92.25ZM91.25 38.1094H104.18V36.1094H91.25V38.1094ZM103.193 37.2699L104.247 43.7543L106.221 43.4332L105.167 36.9488L103.193 37.2699ZM105.234 44.5938H105.625V42.5938H105.234V44.5938ZM106.496 44.0848C108.058 41.3143 109.729 39.5737 111.463 38.7069L110.568 36.9181C108.344 38.0304 106.421 40.144 104.754 43.1027L106.496 44.0848ZM111.463 38.7069C113.273 37.8018 115.482 37.3281 118.125 37.3281V35.3281C115.247 35.3281 112.717 35.844 110.568 36.9181L111.463 38.7069ZM118.125 37.3281C122.196 37.3281 125.196 38.5003 127.278 40.7227L128.738 39.3554C126.184 36.6299 122.596 35.3281 118.125 35.3281V37.3281ZM127.268 40.7121C129.401 43.0563 130.562 46.7503 130.562 51.9922H132.562C132.562 46.5049 131.354 42.2301 128.747 39.366L127.268 40.7121ZM130.562 51.9922V70.8984H132.562V51.9922H130.562ZM130.562 70.8984C130.562 73.3109 131.085 75.3028 132.538 76.3565L133.712 74.7373C133.082 74.2806 132.562 73.1735 132.562 70.8984H130.562ZM132.561 76.3727C133.862 77.2609 135.615 77.6406 137.695 77.6406V75.6406C135.818 75.6406 134.524 75.2912 133.689 74.7211L132.561 76.3727ZM137.695 77.6406H137.969V75.6406H137.695V77.6406ZM136.969 76.6406V80H138.969V76.6406H136.969ZM137.969 79H124.023V81H137.969V79ZM125.023 80V52.3828H123.023V80H125.023ZM125.023 52.3828C125.023 48.7888 124.356 45.8646 122.895 43.7318L121.245 44.862C122.389 46.5312 123.023 48.9977 123.023 52.3828H125.023ZM122.895 43.7318C121.337 41.4564 118.673 40.4453 115.234 40.4453V42.4453C118.307 42.4453 120.2 43.3353 121.245 44.862L122.895 43.7318ZM115.234 40.4453C113.285 40.4453 111.57 40.8212 110.135 41.6284L111.115 43.3716C112.18 42.7725 113.538 42.4453 115.234 42.4453V40.4453ZM110.127 41.6329C108.761 42.4175 107.652 43.4828 106.81 44.8183L108.502 45.8849C109.171 44.8244 110.041 43.9887 111.123 43.3671L110.127 41.6329ZM106.81 44.8183C105.985 46.1267 105.398 47.6185 105.038 49.2804L106.993 49.7039C107.31 48.2409 107.817 46.9722 108.502 45.8849L106.81 44.8183ZM105.035 49.2961C104.709 50.928 104.547 52.6346 104.547 54.4141H106.547C106.547 52.7561 106.698 51.1814 106.996 49.6883L105.035 49.2961ZM104.547 54.4141V71.2891H106.547V54.4141H104.547ZM104.547 71.2891C104.547 73.6307 105.18 75.5505 106.852 76.4956L107.836 74.7544C107.112 74.3453 106.547 73.3745 106.547 71.2891H104.547ZM106.852 76.4956C108.251 77.2867 110.029 77.6406 112.109 77.6406V75.6406C110.232 75.6406 108.832 75.3175 107.836 74.7544L106.852 76.4956ZM174.874 39.84L175.549 39.1022L174.874 39.84ZM178.634 80V81H179.634V80H178.634ZM173.514 80L172.538 80.2183L172.713 81H173.514V80ZM172.154 73.92L173.13 73.7017L172.955 72.92H172.154V73.92ZM171.834 73.92V72.92H171.351L171.051 73.2986L171.834 73.92ZM167.994 77.84L168.615 78.6241L168.619 78.6209L167.994 77.84ZM163.514 80.08L163.244 79.1173L163.236 79.1197L163.514 80.08ZM150.474 79.44L150.066 80.3529L150.075 80.3567L150.474 79.44ZM145.674 75.28L144.821 75.8015L144.828 75.8122L145.674 75.28ZM148.954 58.24L149.518 59.066L149.527 59.0598L148.954 58.24ZM164.474 54.4L164.505 55.3995L164.507 55.3995L164.474 54.4ZM171.754 54.16L171.787 55.1595L172.754 55.1276V54.16H171.754ZM169.434 44.16L168.767 44.9046L169.434 44.16ZM156.474 43.12L156.776 44.0736L156.787 44.07L156.798 44.0662L156.474 43.12ZM150.794 45.36L149.869 45.7386L150.272 46.7245L151.231 46.2598L150.794 45.36ZM148.634 40.08L148.157 39.2011L147.369 39.6289L147.709 40.4586L148.634 40.08ZM155.274 37.52L155.536 38.4852L155.545 38.4827L155.554 38.48L155.274 37.52ZM165.354 59.28L165.316 58.2807L165.314 58.2808L165.354 59.28ZM154.234 61.84L153.651 61.0276L153.641 61.0349L154.234 61.84ZM153.354 73.44L152.74 74.2294L152.747 74.2347L152.754 74.24L153.354 73.44ZM168.074 72.16L168.71 72.9325L168.72 72.924L168.074 72.16ZM171.674 59.04H172.674V58.0013L171.636 58.0407L171.674 59.04ZM174.554 25.84H175.554V24.84H174.554V25.84ZM174.554 31.52V32.52H175.554V31.52H174.554ZM150.794 31.52H149.794V32.52H150.794V31.52ZM150.794 25.84V24.84H149.794V25.84H150.794ZM163.274 37.4C168.381 37.4 171.955 38.524 174.199 40.5778L175.549 39.1022C172.781 36.5693 168.621 35.4 163.274 35.4V37.4ZM174.199 40.5778C176.417 42.6067 177.634 45.9327 177.634 50.8H179.634C179.634 45.6407 178.345 41.6599 175.549 39.1022L174.199 40.5778ZM177.634 50.8V80H179.634V50.8H177.634ZM178.634 79H173.514V81H178.634V79ZM174.49 79.7817L173.13 73.7017L171.178 74.1383L172.538 80.2183L174.49 79.7817ZM172.154 72.92H171.834V74.92H172.154V72.92ZM171.051 73.2986C169.864 74.7952 168.636 76.0461 167.37 77.0591L168.619 78.6209C170.019 77.5006 171.352 76.1381 172.618 74.5414L171.051 73.2986ZM167.374 77.056C166.206 77.9804 164.834 78.6701 163.244 79.1173L163.785 81.0426C165.608 80.5299 167.223 79.7263 168.615 78.624L167.374 77.056ZM163.236 79.1197C161.701 79.5653 159.774 79.8 157.434 79.8V81.8C159.895 81.8 162.021 81.5547 163.793 81.0403L163.236 79.1197ZM157.434 79.8C154.994 79.8 152.813 79.3684 150.874 78.5233L150.075 80.3567C152.296 81.3249 154.754 81.8 157.434 81.8V79.8ZM150.883 78.5272C149.035 77.7007 147.588 76.4458 146.521 74.7478L144.828 75.8122C146.107 77.8475 147.86 79.366 150.066 80.3528L150.883 78.5272ZM146.528 74.7586C145.474 73.0339 144.914 70.8268 144.914 68.08H142.914C142.914 71.0932 143.528 73.6861 144.821 75.8015L146.528 74.7586ZM144.914 68.08C144.914 64.1246 146.447 61.1624 149.518 59.0659L148.391 57.414C144.742 59.9043 142.914 63.502 142.914 68.08H144.914ZM149.527 59.0598C152.651 56.8782 157.591 55.6106 164.505 55.3995L164.444 53.4005C157.385 53.616 151.978 54.9085 148.382 57.4202L149.527 59.0598ZM164.507 55.3995L171.787 55.1595L171.721 53.1605L164.441 53.4005L164.507 55.3995ZM172.754 54.16V51.6H170.754V54.16H172.754ZM172.754 51.6C172.754 47.9366 171.971 45.0911 170.102 43.4154L168.767 44.9046C169.991 46.0022 170.754 48.1168 170.754 51.6H172.754ZM170.102 43.4154C168.314 41.8129 165.858 41.08 162.874 41.08V43.08C165.544 43.08 167.461 43.7338 168.767 44.9046L170.102 43.4154ZM162.874 41.08C160.529 41.08 158.286 41.4432 156.151 42.1738L156.798 44.0662C158.716 43.4101 160.739 43.08 162.874 43.08V41.08ZM156.173 42.1664C154.104 42.8198 152.165 43.5839 150.358 44.4602L151.231 46.2598C152.943 45.4294 154.791 44.7002 156.776 44.0736L156.173 42.1664ZM151.72 44.9814L149.56 39.7014L147.709 40.4586L149.869 45.7386L151.72 44.9814ZM149.111 40.9589C150.895 39.9904 153.033 39.163 155.536 38.4852L155.013 36.5548C152.396 37.2636 150.107 38.1429 148.157 39.2011L149.111 40.9589ZM155.554 38.48C158.02 37.7609 160.592 37.4 163.274 37.4V35.4C160.41 35.4 157.649 35.7858 154.994 36.56L155.554 38.48ZM165.314 58.2808C159.957 58.4951 155.988 59.3501 153.651 61.0277L154.818 62.6523C156.641 61.3433 160.085 60.4916 165.394 60.2792L165.314 58.2808ZM153.641 61.0349C151.336 62.7337 150.194 65.152 150.194 68.16H152.194C152.194 65.728 153.08 63.9329 154.828 62.6451L153.641 61.0349ZM150.194 68.16C150.194 70.7632 150.984 72.8634 152.74 74.2294L153.968 72.6507C152.845 71.7766 152.194 70.3568 152.194 68.16H150.194ZM152.754 74.24C154.457 75.5172 156.575 76.12 159.034 76.12V74.12C156.907 74.12 155.238 73.6028 153.954 72.64L152.754 74.24ZM159.034 76.12C162.852 76.12 166.101 75.0768 168.709 72.9324L167.439 71.3876C165.247 73.1899 162.47 74.12 159.034 74.12V76.12ZM168.72 72.924C171.412 70.6503 172.674 67.2328 172.674 62.88H170.674C170.674 66.8472 169.537 69.6164 167.429 71.396L168.72 72.924ZM172.674 62.88V59.04H170.674V62.88H172.674ZM171.636 58.0407L165.316 58.2807L165.392 60.2793L171.712 60.0393L171.636 58.0407ZM173.554 25.84V31.52H175.554V25.84H173.554ZM174.554 30.52H150.794V32.52H174.554V30.52ZM151.794 31.52V25.84H149.794V31.52H151.794ZM150.794 26.84H174.554V24.84H150.794V26.84ZM211.406 76.0156H212.406V74.8107L211.222 75.0328L211.406 76.0156ZM211.406 79.5312L211.827 80.4383L212.406 80.1695V79.5312H211.406ZM208.164 80.3906L208.003 79.4037L207.992 79.4054L207.982 79.4073L208.164 80.3906ZM195.469 78.0469L196.181 77.3449L196.181 77.3447L195.469 78.0469ZM192.695 41.6797H193.695V40.6797H192.695V41.6797ZM186.602 41.6797H185.602V42.6797H186.602V41.6797ZM186.602 38.4766V37.4766H185.602V38.4766H186.602ZM189.766 37.8906L189.449 36.9419L189.443 36.9441L189.766 37.8906ZM192.852 35.9375L193.569 36.6343L193.578 36.6248L193.587 36.615L192.852 35.9375ZM195.039 32.4219L194.115 32.0385L194.112 32.0474L195.039 32.4219ZM196.523 27.2656V26.2656H195.706L195.543 27.0671L196.523 27.2656ZM200.195 27.2656H201.195V26.2656H200.195V27.2656ZM200.195 37.1094H199.195V38.1094H200.195V37.1094ZM210.664 37.1094H211.664V36.1094H210.664V37.1094ZM210.664 41.6797V42.6797H211.664V41.6797H210.664ZM200.195 41.6797V40.6797H199.195V41.6797H200.195ZM201.836 74.6484L201.077 75.2993L201.084 75.308L201.836 74.6484ZM206.289 77.5625C207.288 77.5625 208.217 77.5086 209.073 77.398L208.817 75.4145C208.059 75.5123 207.217 75.5625 206.289 75.5625V77.5625ZM209.073 77.398C209.9 77.2913 210.739 77.1581 211.591 76.9985L211.222 75.0328C210.407 75.1856 209.605 75.3128 208.817 75.4145L209.073 77.398ZM210.406 76.0156V79.5312H212.406V76.0156H210.406ZM210.985 78.6242C210.38 78.9054 209.405 79.1743 208.003 79.4037L208.326 81.3775C209.788 81.1382 210.975 80.8342 211.827 80.4383L210.985 78.6242ZM207.982 79.4073C206.623 79.659 205.396 79.7812 204.297 79.7812V81.7812C205.541 81.7812 206.892 81.6431 208.346 81.3739L207.982 79.4073ZM204.297 79.7812C200.322 79.7812 197.704 78.8898 196.181 77.3449L194.757 78.7489C196.827 80.8497 200.095 81.7812 204.297 81.7812V79.7812ZM196.181 77.3447C194.612 75.7539 193.695 72.8711 193.695 68.3984H191.695C191.695 73.0404 192.628 76.5899 194.757 78.749L196.181 77.3447ZM193.695 68.3984V41.6797H191.695V68.3984H193.695ZM192.695 40.6797H186.602V42.6797H192.695V40.6797ZM187.602 41.6797V38.4766H185.602V41.6797H187.602ZM186.602 39.4766C187.699 39.4766 188.864 39.2545 190.088 38.8371L189.443 36.9441C188.376 37.308 187.431 37.4766 186.602 37.4766V39.4766ZM190.082 38.8393C191.41 38.3966 192.575 37.6572 193.569 36.6343L192.134 35.2407C191.357 36.0407 190.465 36.6034 189.449 36.9419L190.082 38.8393ZM193.587 36.615C194.587 35.5295 195.378 34.2527 195.966 32.7963L194.112 32.0474C193.606 33.2994 192.939 34.3664 192.116 35.26L193.587 36.615ZM195.963 32.8053C196.568 31.3469 197.079 29.5615 197.504 27.4641L195.543 27.0671C195.135 29.0844 194.656 30.7365 194.115 32.0385L195.963 32.8053ZM196.523 28.2656H200.195V26.2656H196.523V28.2656ZM199.195 27.2656V37.1094H201.195V27.2656H199.195ZM200.195 38.1094H210.664V36.1094H200.195V38.1094ZM209.664 37.1094V41.6797H211.664V37.1094H209.664ZM210.664 40.6797H200.195V42.6797H210.664V40.6797ZM199.195 41.6797V68.6328H201.195V41.6797H199.195ZM199.195 68.6328C199.195 71.466 199.756 73.7583 201.077 75.2992L202.595 73.9976C201.728 72.9865 201.195 71.2684 201.195 68.6328H199.195ZM201.084 75.308C202.412 76.8212 204.181 77.5625 206.289 77.5625V75.5625C204.699 75.5625 203.499 75.0277 202.588 73.9888L201.084 75.308ZM228.867 42.6562L229.714 43.1876L229.718 43.1811L228.867 42.6562ZM227.422 49.0234V50.0234H228.422V49.0234H227.422ZM222.344 47.8906L221.793 48.7256L221.802 48.7312L222.344 47.8906ZM221.758 40.4688L222.545 41.0856L221.758 40.4688ZM224.883 38.0859L224.465 37.1774L224.457 37.1811L224.883 38.0859ZM241.445 37.0703L241.183 38.0355L241.196 38.0388L241.445 37.0703ZM246.016 39.4141L246.682 38.6684L246.016 39.4141ZM250.781 75.3906L250.019 76.0376L250.024 76.0434L250.029 76.0491L250.781 75.3906ZM254.883 76.6406H255.883V75.6406H254.883V76.6406ZM254.883 80V81H255.883V80H254.883ZM244.062 80L243.079 80.1789L243.228 81H244.062V80ZM242.812 73.125L243.796 72.9461L243.647 72.125H242.812V73.125ZM242.148 73.125V72.125H241.648L241.348 72.525L242.148 73.125ZM224.727 80L224.401 80.9454L224.406 80.9471L224.727 80ZM220.82 77.6562L220.13 78.38L220.131 78.3804L220.82 77.6562ZM221.797 58.5547L221.234 57.7282L221.797 58.5547ZM235.508 55.1953L235.538 56.1949L235.543 56.1947L235.508 55.1953ZM242.148 54.9609L242.184 55.9603L243.148 55.9263V54.9609H242.148ZM241.602 44.9219L240.627 45.1442L240.629 45.1543L240.631 45.1644L241.602 44.9219ZM239.492 41.5234L238.88 42.3139L238.891 42.3223L238.902 42.3305L239.492 41.5234ZM239.297 72.8516L240.023 73.5396L240.027 73.5349L239.297 72.8516ZM242.148 58.2422H243.148V57.1953L242.103 57.2432L242.148 58.2422ZM237.031 58.4766L237.073 59.4757L237.077 59.4755L237.031 58.4766ZM227.656 61.2109L228.309 61.9687L228.315 61.9635L227.656 61.2109ZM225.625 64.2578L224.678 63.9355L224.674 63.9478L225.625 64.2578ZM234.727 39.3125C231.655 39.3125 229.253 40.1261 228.016 42.1314L229.718 43.1811C230.409 42.0614 231.912 41.3125 234.727 41.3125V39.3125ZM228.02 42.125C226.919 43.8808 226.422 46.2138 226.422 49.0234H228.422C228.422 46.4164 228.888 44.5046 229.714 43.1875L228.02 42.125ZM227.422 48.0234C225.297 48.0234 223.827 47.6567 222.885 47.0501L221.802 48.7312C223.205 49.635 225.119 50.0234 227.422 50.0234V48.0234ZM222.894 47.0557C222.122 46.5468 221.625 45.6263 221.625 43.9844H219.625C219.625 46.0404 220.274 47.724 221.793 48.7256L222.894 47.0557ZM221.625 43.9844C221.625 42.7978 221.945 41.8509 222.545 41.0856L220.971 39.8519C220.06 41.0137 219.625 42.4105 219.625 43.9844H221.625ZM222.545 41.0856C223.186 40.2671 224.094 39.5624 225.309 38.9908L224.457 37.1811C223.015 37.8595 221.84 38.7434 220.971 39.8519L222.545 41.0856ZM225.301 38.9944C226.505 38.4404 227.939 38.0198 229.615 37.7446L229.291 35.771C227.478 36.0688 225.865 36.5335 224.465 37.1774L225.301 38.9944ZM229.615 37.7446C231.3 37.4679 233.108 37.3281 235.039 37.3281V35.3281C233.012 35.3281 231.095 35.4748 229.291 35.771L229.615 37.7446ZM235.039 37.3281C237.423 37.3281 239.467 37.5694 241.183 38.0354L241.707 36.1052C239.778 35.5816 237.551 35.3281 235.039 35.3281V37.3281ZM241.196 38.0388C242.887 38.4736 244.261 39.1872 245.349 40.1597L246.682 38.6684C245.322 37.4534 243.649 36.6045 241.694 36.1018L241.196 38.0388ZM245.349 40.1597C247.496 42.0777 248.688 45.3201 248.688 50.1562H250.688C250.688 45.0445 249.431 41.1254 246.682 38.6684L245.349 40.1597ZM248.688 50.1562V70.8984H250.688V50.1562H248.688ZM248.688 70.8984C248.688 73.0861 249.049 74.8942 250.019 76.0376L251.544 74.7436C251.056 74.1683 250.688 72.9817 250.688 70.8984H248.688ZM250.029 76.0491C251.043 77.2085 252.697 77.6406 254.648 77.6406V75.6406C252.902 75.6406 251.978 75.2394 251.534 74.7321L250.029 76.0491ZM254.648 77.6406H254.883V75.6406H254.648V77.6406ZM253.883 76.6406V80H255.883V76.6406H253.883ZM254.883 79H244.062V81H254.883V79ZM245.046 79.8211L243.796 72.9461L241.829 73.3039L243.079 80.1789L245.046 79.8211ZM242.812 72.125H242.148V74.125H242.812V72.125ZM241.348 72.525C240.195 74.0628 239.088 75.3855 238.027 76.497L239.473 77.878C240.6 76.6979 241.758 75.3122 242.948 73.725L241.348 72.525ZM238.027 76.497C237.02 77.5513 235.877 78.3595 234.594 78.9299L235.406 80.7576C236.935 80.078 238.292 79.1154 239.473 77.878L238.027 76.497ZM234.594 78.9299C233.355 79.4806 231.734 79.7812 229.688 79.7812V81.7812C231.912 81.7812 233.833 81.4569 235.406 80.7576L234.594 78.9299ZM229.688 79.7812C228.016 79.7812 226.472 79.5357 225.048 79.0529L224.406 80.9471C226.054 81.506 227.817 81.7812 229.688 81.7812V79.7812ZM225.053 79.0546C223.67 78.5778 222.494 77.8691 221.51 76.9321L220.131 78.3804C221.334 79.5267 222.762 80.3805 224.401 80.9454L225.053 79.0546ZM221.51 76.9325C220.506 75.9751 219.711 74.7731 219.134 73.3057L217.273 74.038C217.945 75.7477 218.895 77.202 220.13 78.38L221.51 76.9325ZM219.134 73.3057C218.565 71.8615 218.266 70.1037 218.266 68.0078H216.266C216.266 70.2869 216.591 72.3051 217.273 74.038L219.134 73.3057ZM218.266 68.0078C218.266 64.0321 219.66 61.22 222.36 59.3812L221.234 57.7282C217.892 60.0039 216.266 63.4939 216.266 68.0078H218.266ZM222.36 59.3812C225.149 57.4815 229.493 56.3749 235.538 56.1949L235.478 54.1958C229.283 54.3803 224.486 55.5133 221.234 57.7282L222.36 59.3812ZM235.543 56.1947L242.184 55.9603L242.113 53.9616L235.473 54.1959L235.543 56.1947ZM243.148 54.9609V50.1562H241.148V54.9609H243.148ZM243.148 50.1562C243.148 48.0698 242.962 46.2392 242.572 44.6793L240.631 45.1644C240.971 46.5212 241.148 48.1802 241.148 50.1562H243.148ZM242.577 44.6995C242.193 43.0179 241.374 41.6611 240.083 40.7164L238.902 42.3305C239.746 42.9483 240.333 43.8571 240.627 45.1442L242.577 44.6995ZM240.105 40.733C238.808 39.7284 236.957 39.3125 234.727 39.3125V41.3125C236.767 41.3125 238.093 41.7039 238.88 42.3139L240.105 40.733ZM224.039 68.3984C224.039 71.0078 224.603 73.1516 225.905 74.6501C227.231 76.1755 229.168 76.8594 231.523 76.8594V74.8594C229.555 74.8594 228.251 74.2998 227.415 73.3382C226.556 72.3497 226.039 70.763 226.039 68.3984H224.039ZM231.523 76.8594C235.023 76.8594 237.898 75.7811 240.023 73.5396L238.571 72.1636C236.894 73.9325 234.586 74.8594 231.523 74.8594V76.8594ZM240.027 73.5349C242.137 71.2799 243.148 68.3077 243.148 64.7266H241.148C241.148 67.9163 240.258 70.3607 238.567 72.1682L240.027 73.5349ZM243.148 64.7266V58.2422H241.148V64.7266H243.148ZM242.103 57.2432L236.985 57.4776L237.077 59.4755L242.194 59.2411L242.103 57.2432ZM236.99 57.4774C232.542 57.6628 229.133 58.5903 226.998 60.4584L228.315 61.9635C229.93 60.5503 232.771 59.6549 237.073 59.4757L236.99 57.4774ZM227.004 60.4532C225.925 61.3822 225.15 62.5507 224.678 63.9355L226.572 64.5801C226.934 63.517 227.513 62.6543 228.309 61.9687L227.004 60.4532ZM224.674 63.9478C224.244 65.2665 224.039 66.7549 224.039 68.3984H226.039C226.039 66.917 226.224 65.645 226.576 64.5678L224.674 63.9478ZM282.109 76.6406H283.109V75.6406H282.109V76.6406ZM282.109 80V81H283.109V80H282.109ZM260.586 80H259.586V81H260.586V80ZM260.586 76.6406V75.6406H259.586V76.6406H260.586ZM266.016 75.5469L265.496 74.6926L265.487 74.6978L266.016 75.5469ZM261.016 40.4688H260.016V41.4688H261.016V40.4688ZM261.016 37.1094V36.1094H260.016V37.1094H261.016ZM273.945 37.1094L274.932 36.9488L274.796 36.1094H273.945V37.1094ZM275 43.5938L274.013 43.7543L274.15 44.5938H275V43.5938ZM275.391 43.5938V44.5938H275.975L276.262 44.0848L275.391 43.5938ZM297.773 40.0391L298.513 39.366L298.508 39.3607L298.503 39.3554L297.773 40.0391ZM302.891 75.5469L302.304 76.3565L302.315 76.3647L302.327 76.3727L302.891 75.5469ZM307.734 76.6406H308.734V75.6406H307.734V76.6406ZM307.734 80V81H308.734V80H307.734ZM293.789 80H292.789V81H293.789V80ZM280.391 42.5L279.9 41.6284L279.892 41.6329L280.391 42.5ZM275.781 49.4922L274.804 49.2804L274.802 49.2882L274.801 49.2961L275.781 49.4922ZM277.109 75.625L276.617 76.4956L277.109 75.625ZM281.875 77.6406H282.109V75.6406H281.875V77.6406ZM281.109 76.6406V80H283.109V76.6406H281.109ZM282.109 79H260.586V81H282.109V79ZM261.586 80V76.6406H259.586V80H261.586ZM260.586 77.6406H261.25V75.6406H260.586V77.6406ZM261.25 77.6406C263.362 77.6406 265.157 77.2588 266.544 76.3959L265.487 74.6978C264.53 75.2933 263.148 75.6406 261.25 75.6406V77.6406ZM266.536 76.4011C268.194 75.3915 268.812 73.3712 268.812 70.8984H266.812C266.812 73.1653 266.233 74.2439 265.496 74.6927L266.536 76.4011ZM268.812 70.8984V45.9375H266.812V70.8984H268.812ZM268.812 45.9375C268.812 43.563 268.163 41.6264 266.475 40.6563L265.478 42.3905C266.238 42.8267 266.812 43.8328 266.812 45.9375H268.812ZM266.475 40.6563C265.054 39.84 263.291 39.4688 261.25 39.4688V41.4688C263.063 41.4688 264.452 41.8006 265.478 42.3905L266.475 40.6563ZM261.25 39.4688H261.016V41.4688H261.25V39.4688ZM262.016 40.4688V37.1094H260.016V40.4688H262.016ZM261.016 38.1094H273.945V36.1094H261.016V38.1094ZM272.958 37.2699L274.013 43.7543L275.987 43.4332L274.932 36.9488L272.958 37.2699ZM275 44.5938H275.391V42.5938H275V44.5938ZM276.262 44.0848C277.823 41.3143 279.495 39.5737 281.228 38.7069L280.334 36.9181C278.109 38.0304 276.187 40.144 274.519 43.1027L276.262 44.0848ZM281.228 38.7069C283.039 37.8018 285.248 37.3281 287.891 37.3281V35.3281C285.013 35.3281 282.482 35.844 280.334 36.9181L281.228 38.7069ZM287.891 37.3281C291.961 37.3281 294.962 38.5003 297.044 40.7227L298.503 39.3554C295.95 36.6299 292.362 35.3281 287.891 35.3281V37.3281ZM297.034 40.7121C299.167 43.0563 300.328 46.7503 300.328 51.9922H302.328C302.328 46.5049 301.119 42.2301 298.513 39.366L297.034 40.7121ZM300.328 51.9922V70.8984H302.328V51.9922H300.328ZM300.328 70.8984C300.328 73.3109 300.85 75.3028 302.304 76.3565L303.478 74.7373C302.848 74.2806 302.328 73.1735 302.328 70.8984H300.328ZM302.327 76.3727C303.627 77.2609 305.38 77.6406 307.461 77.6406V75.6406C305.583 75.6406 304.289 75.2912 303.455 74.7211L302.327 76.3727ZM307.461 77.6406H307.734V75.6406H307.461V77.6406ZM306.734 76.6406V80H308.734V76.6406H306.734ZM307.734 79H293.789V81H307.734V79ZM294.789 80V52.3828H292.789V80H294.789ZM294.789 52.3828C294.789 48.7888 294.122 45.8646 292.661 43.7318L291.011 44.862C292.154 46.5312 292.789 48.9977 292.789 52.3828H294.789ZM292.661 43.7318C291.102 41.4564 288.438 40.4453 285 40.4453V42.4453C288.072 42.4453 289.965 43.3353 291.011 44.862L292.661 43.7318ZM285 40.4453C283.051 40.4453 281.335 40.8212 279.9 41.6284L280.881 43.3716C281.946 42.7725 283.303 42.4453 285 42.4453V40.4453ZM279.892 41.6329C278.527 42.4175 277.418 43.4828 276.576 44.8183L278.268 45.8849C278.936 44.8244 279.807 43.9887 280.889 43.3671L279.892 41.6329ZM276.576 44.8183C275.751 46.1267 275.164 47.6185 274.804 49.2804L276.759 49.7039C277.076 48.2409 277.582 46.9722 278.268 45.8849L276.576 44.8183ZM274.801 49.2961C274.474 50.928 274.312 52.6346 274.312 54.4141H276.312C276.312 52.7561 276.463 51.1814 276.762 49.6883L274.801 49.2961ZM274.312 54.4141V71.2891H276.312V54.4141H274.312ZM274.312 71.2891C274.312 73.6307 274.945 75.5505 276.617 76.4956L277.601 74.7544C276.878 74.3453 276.312 73.3745 276.312 71.2891H274.312ZM276.617 76.4956C278.017 77.2867 279.794 77.6406 281.875 77.6406V75.6406C279.997 75.6406 278.598 75.3175 277.601 74.7544L276.617 76.4956Z" fill="#FF9213" mask="url(#path-1-outside-1_12_235)"/>
<defs>
<filter id="filter0_i_12_235" x="3.82812" y="22.0703" width="303.906" height="62.7297" filterUnits="userSpaceOnUse" color-interpolation-filters="sRGB">
<feFlood flood-opacity="0" result="BackgroundImageFix"/>
<feBlend mode="normal" in="SourceGraphic" in2="BackgroundImageFix" result="shape"/>
<feColorMatrix in="SourceAlpha" type="matrix" values="0 0 0 0 0 0 0 0 0 0 0 0 0 0 0 0 0 0 127 0" result="hardAlpha"/>
<feOffset dy="4"/>
<feGaussianBlur stdDeviation="2"/>
<feComposite in2="hardAlpha" operator="arithmetic" k2="-1" k3="1"/>
<feColorMatrix type="matrix" values="0 0 0 0 0 0 0 0 0 0 0 0 0 0 0 0 0 0 0.25 0"/>
<feBlend mode="normal" in2="shape" result="effect1_innerShadow_12_235"/>
</filter>
</defs>
</svg>
